<?xml version="1.0" encoding="UTF-8"?>
<svg id="Layer_2" data-name="Layer 2" xmlns="http://www.w3.org/2000/svg" xmlns:xlink="http://www.w3.org/1999/xlink" viewBox="0 0 486.75 486.75">
  <defs>
    <style>
      .cls-1 {
        fill: url(#linear-gradient);
      }

      .cls-1, .cls-2, .cls-3, .cls-4, .cls-5 {
        stroke-width: 0px;
      }

      .cls-2 {
        fill: none;
      }

      .cls-3 {
        fill: url(#linear-gradient-2);
      }

      .cls-4 {
        fill: url(#linear-gradient-3);
      }

      .cls-6 {
        clip-path: url(#clippath);
      }

      .cls-5 {
        fill: url(#linear-gradient-4);
      }
    </style>
    <linearGradient id="linear-gradient" x1="232.42" y1="-4.72" x2="253.79" y2="479.13" gradientUnits="userSpaceOnUse">
      <stop offset="0" stop-color="#f95851"/>
      <stop offset="1" stop-color="#ffd57a"/>
    </linearGradient>
    <clipPath id="clippath">
      <circle class="cls-2" cx="243.37" cy="243.38" r="243.37"/>
    </clipPath>
    <linearGradient id="linear-gradient-2" x1="478.79" y1="640.32" x2="333.76" y2="279.93" gradientUnits="userSpaceOnUse">
      <stop offset="0" stop-color="#d0852b"/>
      <stop offset="1" stop-color="#fad890"/>
    </linearGradient>
    <linearGradient id="linear-gradient-3" x1="125.61" y1="516.44" x2="95.98" y2="257.21" xlink:href="#linear-gradient-2"/>
    <linearGradient id="linear-gradient-4" x1="261.12" y1="340.32" x2="4.46" y2="575.89" gradientUnits="userSpaceOnUse">
      <stop offset="0" stop-color="#d0852b"/>
      <stop offset="1" stop-color="#edb153"/>
    </linearGradient>
  </defs>
  <g id="Layer_1-2" data-name="Layer 1">
    <g>
      <path class="cls-1" d="M243.35,0C108.94,0,0,108.98,0,243.4c0,35.59,7.62,69.37,21.37,99.86l65.3-40.79c-6.9-18.39-10.71-38.27-10.71-59.07,0-92.45,74.94-167.38,167.38-167.38s167.38,74.94,167.38,167.38c0,21.84-4.17,42.64-11.79,61.75l65.51,40.12c14.32-31,22.3-65.51,22.3-101.87C486.75,108.98,377.77,0,243.35,0ZM243.35,410.78c-59.38,0-111.55-30.95-141.27-77.56l-64.43,40.27c43.16,68.09,119.12,113.25,205.7,113.25s162.64-45.22,205.8-113.36l-64.84-39.71c-29.72,46.35-81.78,77.1-140.96,77.1Z"/>
      <g class="cls-6">
        <g>
          <path class="cls-3" d="M159.61,369.6c6.69,35.68,153.95,2.89,200.81,22.18,28.21,11.61,24.82,52.55-15.01,94.98h282.08L242.61,244.24s-89.7,89.68-83,125.36Z"/>
          <path class="cls-4" d="M345.41,486.75c39.83-42.43,43.22-83.37,15.01-94.98-46.86-19.29-194.12,13.5-200.81-22.18-6.69-35.68,83-125.36,83-125.36l-384.88,242.51h487.67Z"/>
          <path class="cls-5" d="M345.41,486.75c39.83-42.43,43.22-83.37,15.01-94.98-46.86-19.29-194.12,13.5-200.81-22.18-6.69-35.68,83-125.36,83-125.36l-384.88,242.51h487.67Z"/>
        </g>
      </g>
    </g>
  </g>
</svg>